<svg id="Layer_1" data-name="Layer 1" xmlns="http://www.w3.org/2000/svg" viewBox="0 0 862 550">
  <defs>
    <style>
      .cls-1 {
        fill: #bd081c;
      }
    </style>
  </defs>
  <g>
    <path class="cls-1" d="M451.07,110.77q118.8-12.12,237.6-24.27,0,188,0,376L450.05,438.12c-14.21-1.81-28.5-2.9-42.75-4.37q0-15.87,0-31.74h8.42c0,8,0,16.09,0,24.14,88.19,8.87,176.35,18.11,264.53,27.09q.06-178.74,0-357.48Q548,109.23,415.71,122.87q0,12.06,0,24.12h-8.42q0-15.87,0-31.74C421.89,113.74,436.52,112.63,451.07,110.77Z"/>
    <path class="cls-1" d="M166.13,155.58c9.05-.15,18.11-.12,27.16,0-2.28,2.23-5.44,4.17-6.11,7.53A71.4,71.4,0,0,0,187,172c0,27.83,0,55.66,0,83.49q17.52,0,35,0c3.76.17,7.77-1.33,9.85-4.59,1.48-3.14,2.26-6.57,4-9.61-.16,7-1,13.95-1.53,20.93-22.73,0-45.47.09-68.21,0a41.31,41.31,0,0,0,4.67-4.39c1.54-1.9,1.6-4.47,1.68-6.79q0-42,0-84c-.11-2.32-.08-4.91-1.63-6.81A49.56,49.56,0,0,0,166.13,155.58Z"/>
    <path class="cls-1" d="M296.42,155.46c15.12-.55,30.7,6,39.59,18.54,7.37,9.68,10.7,21.92,10.83,34,.15,11.27-2.49,22.77-8.55,32.36a46.37,46.37,0,0,1-20.89,18.13,52.57,52.57,0,0,1-42-.94c-12.63-6.16-21.58-18.44-25-31.92-4.46-17.13-2.18-36.46,8.1-51.13C267,162.36,281.74,155.49,296.42,155.46Zm-3,7a30.49,30.49,0,0,0-19.72,11.16c-6.64,8.28-9.92,18.84-10.74,29.33s.39,21.54,4.78,31.31c3,6.8,7.62,13.08,14,17a30.18,30.18,0,0,0,30.16.64c6.78-3.71,11.82-10,14.95-17,4.62-9.93,5.87-21.14,5-32-.76-10-3.61-20-9.7-28.07A30.38,30.38,0,0,0,293.4,162.49Z"/>
    <path class="cls-1" d="M359.38,155.58c13.85-.19,27.71,0,41.57-.09,7.85-.05,15.94.92,23,4.59,6.53,3.54,12.36,9.16,14.52,16.45,2.66,8.26,0,17.75-6.09,23.85-6.61,6.76-15.4,10.82-24.22,13.86,8.36,11.82,16.84,23.55,25.19,35.37,2.32,3.29,4.93,6.5,8.39,8.65,2.08,1.3,4.34,2.39,6.1,4.15a151.39,151.39,0,0,1-15.8-.14,16,16,0,0,1-11.85-6.42q-13.62-19-27.24-38.07a90.6,90.6,0,0,1-12.73,1.28q0,15.49,0,31c.06,2.25,0,4.63,1,6.73,1.35,2.25,3.55,3.79,5.4,5.61q-13.63.27-27.27,0c1.54-1.49,3.22-2.83,4.61-4.47,1.63-1.88,1.71-4.51,1.78-6.87q0-42,0-84.09a15,15,0,0,0-.92-5.64C363.48,159,361.24,157.42,359.38,155.58Zm20.86,6.68q0,25,0,50c9.76-1.11,19.76-2.73,28.48-7.52,6.21-3.28,11.51-8.83,13.35-15.73,1.67-6.24.8-13.53-3.65-18.45-3.62-4-8.94-5.72-14.05-6.86C396.44,162.09,388.29,162.2,380.24,162.26Z"/>
    <path class="cls-1" d="M460.34,155.58c23.77-.19,47.55,0,71.32-.07.45,7,1.34,13.93,1.44,20.93-1.55-2.85-2.37-6-3.64-9a10.37,10.37,0,0,0-9.4-5.21c-12.9-.06-25.81,0-38.72,0q0,20,0,40c9.57,0,19.14.07,28.7,0,3.62.07,7.51-1.54,9.23-4.88,1.46-3.1,2.41-6.42,4-9.48.46,6,.18,12.1.25,18.14-.07,5.72.22,11.45-.27,17.16-2.54-4-2.57-9.78-7-12.45C513.87,209,510.82,209,508,209c-8.89.05-17.79,0-26.69,0,0,15.5,0,31,0,46.49,12.22,0,24.43,0,36.65,0,2.94,0,6.12-.14,8.56-2,4.16-2.68,4.08-8.25,6.55-12.14-.13,7-1,13.91-1.45,20.87-23.78,0-47.56.11-71.34-.07a43,43,0,0,0,4.57-4.28c1.58-1.89,1.67-4.49,1.75-6.84q0-42,0-84.1c-.08-2.36-.15-5-1.74-6.9A55,55,0,0,0,460.34,155.58Z"/>
    <path class="cls-1" d="M545.73,155.59c8.21-.18,16.42-.07,24.64-.08q16.29,49.17,32.46,98.39c11-32.75,21.64-65.61,32.54-98.39,7.17,0,14.33-.1,21.5.08a48.2,48.2,0,0,0-4.72,4.54c-1.62,1.89-1.53,4.52-1.61,6.86q.06,42,0,84c.08,2.33.09,4.93,1.65,6.83a41.71,41.71,0,0,0,4.64,4.37q-13.61.12-27.2,0a38.63,38.63,0,0,0,4.91-4.66c1.59-2.16,1.41-5,1.5-7.52-.11-24.17.08-48.34-.1-72.51-9.6,28.22-18.77,56.59-28.23,84.86a33.73,33.73,0,0,1-16-4.09,12.12,12.12,0,0,1-5.05-6.92c-9.32-27.87-18.34-55.84-27.78-83.67-.27,27.43,0,54.88-.13,82.31.09,2.58-.08,5.47,1.53,7.67a41.72,41.72,0,0,0,4.75,4.55c-6.45,0-12.9.07-19.35,0a38.55,38.55,0,0,0,4.91-4.65c1.41-1.85,1.39-4.29,1.47-6.5q0-42.06,0-84.11c-.1-2.21-.06-4.65-1.43-6.51A43.91,43.91,0,0,0,545.73,155.59Z"/>
    <path class="cls-1" d="M167.88,270.77c19.3,0,38.6,0,57.9,0,.41,5.44,1.16,10.85,1.2,16.32-1.33-2.75-1.94-5.83-3.64-8.39a10.26,10.26,0,0,0-7.23-2.67c-4.52-.11-9,0-13.56,0,0,21.33,0,42.66,0,64,.05,2.95-.24,5.95.46,8.85.78,2.07,2.68,3.42,4.18,5-7-.13-13.93-.05-20.9-.06,1.72-1.75,4.2-3.22,4.6-5.84a64.8,64.8,0,0,0,.25-8.92c0-21,0-42,0-63-4.73.05-9.47-.14-14.2,0a9.17,9.17,0,0,0-6.88,3c-1.45,2.52-2.19,5.38-3.4,8C166.8,281.59,167.42,276.19,167.88,270.77Z"/>
    <path class="cls-1" d="M236.76,270.78c11.75-.06,23.5,0,35.24,0,7.63.32,15.71,2.45,21.23,8,6.31,5.87,7.9,16.27,3.06,23.52-4.8,7.55-13.32,11.38-21.45,14.24,7,9.87,14,19.75,21.09,29.57,2.39,3.61,6.34,5.52,10.05,7.48a113.8,113.8,0,0,1-13.82,0,11.91,11.91,0,0,1-8.41-5.34c-7-9.72-13.82-19.52-20.78-29.24-3.3.51-6.61.85-9.94,1.07,0,7.64,0,15.28,0,22.93.06,2.11-.09,4.34.71,6.35,1,1.79,2.67,3,4.08,4.4q-10.42,0-20.87,0c1.81-1.77,4.34-3.33,4.64-6.08a82.28,82.28,0,0,0,.21-9.68q0-26.5,0-53c0-2.88.2-5.79-.35-8.63C240.75,273.93,238.44,272.5,236.76,270.78ZM253,276c0,13,0,26,0,39,8.63-1.32,17.77-2.55,25-7.87,5.91-4.07,9.52-11.73,7.65-18.85-1-4.91-5.23-8.55-9.83-10.12C268.52,275.74,260.69,275.88,253,276Z"/>
    <path class="cls-1" d="M341.15,270.78c6.73-.06,13.47,0,20.2,0,8.37,25,16.51,50.11,24.86,75.13,1.13,3.95,4.93,5.87,8.22,7.74-8.12.25-16.25.18-24.37.05q2.08-1.35,4.22-2.62a13.11,13.11,0,0,0-.07-5.11c-1.23-4.54-2.92-8.94-4.33-13.43-12.19,0-24.38,0-36.57,0-1.33,4.26-2.84,8.47-4.15,12.74-.5,1.78-1.16,3.81-.19,5.57a29.12,29.12,0,0,0,4,2.93c-6.05-.07-12.1.1-18.15-.14,3.51-1.89,7.18-4.27,8.38-8.31q10.89-32.71,21.72-65.46c.5-1.87,1.29-4,.21-5.85A24.38,24.38,0,0,0,341.15,270.78Zm10.45,6.56q-8.24,25-16.48,49.9c11,0,22,0,33,0C362.6,310.6,357.19,293.94,351.6,277.34Z"/>
    <path class="cls-1" d="M381.07,271c8-.06,16.07-.23,24.12-.24a24.87,24.87,0,0,0-4.26,3.44c-1.06,2,.08,4.25.56,6.24,7.46,22.23,14.76,44.5,22.21,66.72,7.54-22.32,14.89-44.71,22.37-67.06.43-1.81,1.39-3.83.52-5.64a33.08,33.08,0,0,0-4.08-3.68c6-.05,12-.1,18.05,0-2.48,1.69-5.42,3-7.09,5.6s-2.25,5.79-3.25,8.73q-11.31,34.35-22.71,68.68c-4.66-.32-9.61-.95-13.38-4-1.87-1.36-2.66-3.6-3.37-5.69-7-21.3-14.13-42.54-21.14-63.82-.76-2.07-1.44-4.33-3.15-5.83A38.55,38.55,0,0,0,381.07,271Z"/>
    <path class="cls-1" d="M469.75,270.78q27.76-.07,55.54,0c.42,5.42,1,10.82,1.08,16.26-1.23-2.64-1.92-5.5-3.38-8-1.89-2.31-5-3.06-7.91-3l-28.88,0q0,15.5,0,31c7.63,0,15.26.06,22.89,0a6.9,6.9,0,0,0,6.38-3.45c1.25-2.57,2.11-5.3,3.33-7.87.26,9.29.34,18.61,0,27.9-1.33-2.82-2-5.95-3.71-8.59-2-2.18-5.12-2.81-8-2.75-6.95,0-13.9,0-20.85,0,0,12.08,0,24.16,0,36.24,10.6-.12,21.22.29,31.8-.2,5.63-.37,6.42-6.77,8.42-10.79-.12,5.43-.72,10.83-1.15,16.25-18.45,0-36.91,0-55.36,0,1.81-1.79,4.35-3.35,4.65-6.1a82.28,82.28,0,0,0,.21-9.68q0-25.5,0-51a92.61,92.61,0,0,0-.19-9.86C474.28,274.28,471.58,272.66,469.75,270.78Z"/>
    <path class="cls-1" d="M536.25,270.78c7.06,0,14.13-.07,21.19,0-1.62,1.64-3.79,3-4.63,5.23-.58,2.61-.33,5.31-.37,8,.06,21.5,0,43,0,64.5,9.84-.13,19.7.29,29.53-.19,5.59-.39,6.42-6.77,8.4-10.78-.11,5.42-.72,10.82-1.14,16.22-17.64,0-35.29,0-52.93,0,1.71-1.75,4.19-3.22,4.58-5.84a76.35,76.35,0,0,0,.26-9.92q0-26,0-52c0-3.28.25-6.6-.36-9.84C540,273.87,537.86,272.46,536.25,270.78Z"/>
    <path class="cls-1" d="M605,281c3.93-6,11-9.4,18-10,6.85-.66,14.09-.38,20.38,2.69,1.44.65,3.11,1.5,4.66.58.69-1.26,1.34-2.55,1.93-3.87,1,6.37,2.51,12.66,3,19.1-3.08-1.94-3.59-5.91-6.2-8.28-7.31-7.18-19.86-7.49-28-1.58-5.23,3.71-5.78,11.73-2.06,16.69,3.37,4.55,8.76,6.83,13.68,9.29,6.95,3.42,14.32,6.58,19.89,12.13,7,6.92,8.47,19,2.6,27-4.08,5-10.45,7.8-16.78,8.5-5.73.7-11.71.81-17.21-1.2-2.71-.87-5.13-2.43-7.87-3.18-2.93.25-4.32,3.36-6.23,5.18-.11-8.21-.14-16.41,0-24.62l1.79.9c1.29,3.35,1.69,7.15,4.05,10,5.68,8,16.94,9.93,25.83,7,4.35-1.54,8.46-5,9.23-9.77.59-4.59-2.17-8.86-5.66-11.59-8.72-6.83-19.7-9.87-28.65-16.35-4-3-7.67-7-8.84-12.05A22,22,0,0,1,605,281Z"/>
    <path class="cls-1" d="M291.19,371c4.37.16,9.69-.71,13.05,2.79,3.64,4.14,3.64,10.77,1,15.44-3.1,4.55-9.3,3.7-14.07,3.81Q291.16,382,291.19,371Zm2.84,2.37q-.09,8.76,0,17.52c2.46-.21,5.26.19,7.31-1.5,2.48-2,3-5.42,2.82-8.4-.15-2.53-1-5.51-3.56-6.57C298.52,373.56,296.23,373.58,294,373.35Z"/>
    <path class="cls-1" d="M316.36,371.47c4.08-1.66,9.27-.2,11.43,3.75A15,15,0,0,1,327,390c-3.48,5-12.35,4.42-14.9-1.24C309.3,383.18,309.93,374.29,316.36,371.47Zm2.94,1.88c-3.38,0-5.43,3.44-5.71,6.47-.65,4.11.43,9.17,4.54,11.07,5.26,1.61,8.71-4.35,8.31-8.89C326.79,377.86,324.12,372.57,319.3,373.35Z"/>
    <path class="cls-1" d="M334.12,371h2.76c0,6.58,0,13.16,0,19.74h9.47c.1.53.29,1.61.39,2.14-4.22.15-8.44.14-12.65.09C334.11,385.65,334.1,378.32,334.12,371Z"/>
    <path class="cls-1" d="M354.32,371.37c4.35-1.7,9.85.32,11.64,4.74,1.79,4.59,1.57,10.33-1.53,14.33C360.8,395,352.57,394.34,350,389,347,383.32,347.62,374.11,354.32,371.37Zm2.09,2.06c-3.94.59-5.35,5.12-5.25,8.57-.13,3.7,1.7,8.55,5.87,9,3.63.59,6.3-2.93,6.87-6.14s.39-6.63-1.45-9.31A5.9,5.9,0,0,0,356.41,373.43Z"/>
    <path class="cls-1" d="M371.86,371c3.95.11,8.24-.73,11.89,1.23,2.72,1.31,3.19,5,2.21,7.58-.61,2-2.74,2.82-4.28,4,1.8,3.06,3.58,6.13,5.38,9.19H384c-1.77-3.08-3.58-6.14-5.32-9.24-1.33,0-2.66,0-4,0,0,3.09,0,6.18,0,9.27h-2.75Q371.83,382,371.86,371Zm2.77,2.16c0,2.78,0,5.57,0,8.36,2.37-.06,4.83.16,7.12-.62,2.27-1.46,2.69-5.37.27-6.88C379.74,372.89,377.08,373.36,374.63,373.18Z"/>
    <path class="cls-1" d="M401.34,371.36c3.31-1.56,6.84.06,9.67,1.85-.28.46-.86,1.36-1.15,1.81-2.28-.86-4.72-2.32-7.22-1.45a2.89,2.89,0,0,0-1.27,5c2.64,1.9,6,2.59,8.59,4.54,2.72,2.33,2.12,7.11-.78,9.05a11.67,11.67,0,0,1-6.22,1.4c-2.49,0-4.41-1.81-6.44-3,.36-.51,1.06-1.53,1.41-2,2.56,1.53,5.61,3.31,8.66,2.08a3.35,3.35,0,0,0,1.33-5.47c-2.71-2.15-6.55-2.42-9-5C396.31,377.48,397.69,372.29,401.34,371.36Z"/>
    <path class="cls-1" d="M416,371h2.81q0,11,0,22H416Q416,382,416,371Z"/>
    <path class="cls-1" d="M422.76,371c5.4,0,10.8,0,16.2,0,0,.61,0,1.82,0,2.43-2.21,0-4.43,0-6.64,0,0,6.49,0,13,0,19.48h-2.82c0-6.49,0-13,0-19.47l-6.63,0C422.79,372.87,422.77,371.63,422.76,371Z"/>
    <path class="cls-1" d="M454.19,371h3.12q3.76,11,7.45,22h-2.95c-.68-2.17-1.43-4.32-2.11-6.49l-8,0c-.69,2.17-1.45,4.32-2.13,6.49l-2.83,0Q450.42,382,454.19,371Zm1.45,2.49c-1,3.59-2.13,7.17-3.24,10.75l6.61,0Q457.36,378.85,455.64,373.48Z"/>
    <path class="cls-1" d="M467.9,371l3.28,0c2,5.51,3.88,11.07,5.95,16.56,2-5.49,3.85-11.05,5.86-16.55h3.25q0,11,0,22h-2.6c-.05-6.14-.05-12.28.15-18.41-2.06,5.45-3.72,11.07-6.12,16.39h-1.31c-2.32-5.37-4.09-10.95-6.11-16.42.26,6.14.26,12.28.21,18.43h-2.55C467.88,385.67,467.89,378.33,467.9,371Z"/>
    <path class="cls-1" d="M492.28,371q6.36,0,12.72,0c0,.62,0,1.84,0,2.46-3.32,0-6.63,0-9.94,0q0,3.36,0,6.73c2.78,0,5.57,0,8.37,0,0,.62,0,1.86,0,2.48l-8.36,0c0,2.66,0,5.32,0,8,3.39,0,6.79,0,10.19,0,0,.56.08,1.66.11,2.22q-6.54,0-13.08,0Z"/>
    <path class="cls-1" d="M507.86,371q8.07,0,16.15,0v2.48l-6.61,0c0,6.5,0,13,0,19.49h-2.79c0-6.5,0-13,0-19.49-2.19,0-4.38,0-6.56,0C507.94,372.87,507.89,371.64,507.86,371Z"/>
    <path class="cls-1" d="M528.51,371.21l2.64-.76c-.06,5.49-.15,11-.48,16.48l-1.63-.77A126.32,126.32,0,0,1,528.51,371.21Z"/>
    <path class="cls-1" d="M529.18,388.74c1.05.84,2.72,1.39,2.67,3-.55,1.71-2.14,2.54-3.61,1.21C527.36,391.43,528.5,390.07,529.18,388.74Z"/>
  </g>
</svg>
